<svg width="18" height="18" viewBox="0 0 18 18" fill="none" xmlns="http://www.w3.org/2000/svg">
<path d="M14.0218 10.4375L9.18846 15.2709C9.16352 15.2958 9.13391 15.3156 9.10131 15.3292C9.06872 15.3427 9.03377 15.3496 8.99849 15.3496C8.9632 15.3496 8.92826 15.3427 8.89566 15.3292C8.86306 15.3156 8.83345 15.2958 8.80851 15.2709L3.97518 10.4375C3.92479 10.3872 3.89648 10.3188 3.89648 10.2476C3.89648 10.1763 3.92479 10.108 3.97518 10.0576C4.02556 10.0072 4.0939 9.97889 4.16515 9.97889C4.23641 9.97889 4.30474 10.0072 4.35513 10.0576L8.72997 14.4324L8.72997 3.26608C8.72997 3.19486 8.75826 3.12656 8.80861 3.07621C8.85897 3.02585 8.92727 2.99756 8.99849 2.99756C9.0697 2.99756 9.138 3.02585 9.18836 3.07621C9.23871 3.12656 9.267 3.19486 9.267 3.26608L9.267 14.4324L13.6418 10.0576C13.6922 10.0072 13.7606 9.97889 13.8318 9.97889C13.9031 9.97889 13.9714 10.0072 14.0218 10.0576C14.0722 10.108 14.1005 10.1763 14.1005 10.2476C14.1005 10.3188 14.0722 10.3872 14.0218 10.4375Z" fill="#A6C5D5"/>
</svg>
