<svg width="18" height="18" viewBox="0 0 18 18" fill="none" xmlns="http://www.w3.org/2000/svg">
<path d="M10.2622 4.15008L15.0956 8.98341C15.1205 9.00835 15.1403 9.03796 15.1539 9.07056C15.1674 9.10316 15.1743 9.1381 15.1743 9.17339C15.1743 9.20868 15.1674 9.24362 15.1539 9.27622C15.1403 9.30881 15.1205 9.33843 15.0956 9.36337L10.2622 14.1967C10.2119 14.2471 10.1435 14.2754 10.0723 14.2754C10.001 14.2754 9.93267 14.2471 9.88229 14.1967C9.8319 14.1463 9.8036 14.078 9.8036 14.0067C9.8036 13.9355 9.8319 13.8671 9.88229 13.8167L14.2571 9.44191L3.09078 9.44191C3.01957 9.44191 2.95127 9.41362 2.90091 9.36326C2.85056 9.3129 2.82227 9.24461 2.82227 9.17339C2.82227 9.10217 2.85056 9.03387 2.90091 8.98352C2.95127 8.93316 3.01957 8.90487 3.09078 8.90487L14.2571 8.90487L9.88229 4.53003C9.8319 4.47965 9.8036 4.41131 9.8036 4.34006C9.8036 4.2688 9.8319 4.20046 9.88229 4.15008C9.93267 4.09969 10.001 4.07139 10.0723 4.07139C10.1435 4.07139 10.2119 4.09969 10.2622 4.15008Z" fill="#A6C5D5"/>
</svg>
