<svg width="704" height="180" viewBox="0 0 704 180" fill="none" xmlns="http://www.w3.org/2000/svg">
<g clip-path="url(#clip0_793_6192)">
<path d="M32.9952 2.20109C27.2076 2.64946 24.077 7.5 24.077 16.7527V74.5516C32.542 69.9253 40.348 68.1522 47.9274 68.1522C68.2147 68.1522 86.0511 80.9511 106.338 80.9511C113.918 80.9511 121.724 79.178 130.189 74.5516V16.7731C130.189 7.5 127.058 2.64946 121.271 2.22147C120.818 2.22147 120.385 1.56929 120.385 0.896739V0.0203804H154.266V0.896739C154.266 1.56929 153.813 2.22147 153.38 2.22147C147.593 2.66984 144.462 7.52038 144.462 16.7731V159.721C144.462 168.995 147.593 173.845 153.38 174.273C153.833 174.273 154.266 174.925 154.266 175.598V176.474H120.385V175.598C120.385 174.925 120.838 174.273 121.271 174.273C127.058 173.825 130.189 168.974 130.189 159.721V77.2215C121.724 81.8478 113.918 83.6209 106.338 83.6209C86.0511 83.6209 68.2147 70.822 47.9274 70.822C40.348 70.822 32.542 72.5951 24.077 77.2215V159.721C24.077 168.995 27.187 173.845 32.9952 174.273C33.4483 174.273 33.8808 174.925 33.8808 175.598V176.474H0V175.598C0 174.925 0.453117 174.273 0.885638 174.273C6.67318 173.825 9.80381 168.974 9.80381 159.721V16.7731C9.80381 7.5 6.69378 2.64946 0.885638 2.20109C0.432521 2.20109 0 1.54891 0 0.876359V0H33.8808V0.876359C33.8808 1.54891 33.4277 2.20109 32.9952 2.20109Z" fill="#FFFDF8"/>
<path d="M223.366 56.0258C195.726 56.0258 179.681 76.3247 179.681 104.776C179.681 105.428 179.022 106.101 178.343 106.101H177.457C177.457 81.3994 174.326 73.2269 166.974 60.2038H168.312C169.198 60.2038 169.424 60.6522 170.104 61.5285C172.782 65.7269 174.574 67.0516 178.137 67.0516C187.714 67.0516 199.763 53.8247 223.387 53.8247C259.286 53.8247 277.781 80.5231 277.781 105.876V159.701C277.781 168.974 280.912 173.825 286.699 174.253C287.153 174.253 287.585 174.905 287.585 175.577V176.454H277.781C270.202 176.454 264.414 170.727 264.414 163.003V158.376C253.931 173.152 236.548 180 218.938 180C187.055 180 166.541 163.227 166.541 137.425C166.541 111.624 187.055 95.2785 218.938 95.2785C236.548 95.2785 253.931 102.126 264.414 116.902V105.876C264.414 80.5027 253.045 56.0258 223.387 56.0258H223.366ZM220.689 177.799C237.639 177.799 254.569 170.523 264.394 154.198V121.101C254.59 104.776 237.639 97.5 220.689 97.5C196.158 97.5 180.34 113.173 180.34 137.425C180.34 161.678 196.179 177.799 220.689 177.799Z" fill="#FFFDF8"/>
<path d="M327.254 56.0258C325.462 59.5516 324.123 66.8478 324.123 72.1263V75.8763C334.38 62.4253 350.651 53.8247 369.599 53.8247C400.37 53.8247 420.431 72.5747 420.431 101.474V159.721C420.431 168.995 423.562 173.845 429.349 174.273C429.802 174.273 430.235 174.925 430.235 175.598V176.474H397.24V175.598C397.24 174.925 397.693 174.273 398.125 174.273C403.913 173.825 407.043 168.974 407.043 159.721V101.474C407.043 73.0231 392.77 56.0258 368.261 56.0258C350.198 56.0258 334.153 65.0747 324.123 80.0747V159.721C324.123 168.995 327.254 173.845 333.041 174.273C333.494 174.273 333.927 174.925 333.927 175.598V176.474H300.932V175.598C300.932 174.925 301.385 174.273 301.817 174.273C307.605 173.825 310.735 168.974 310.735 159.721V82.9484C310.735 75.6725 307.831 73.2473 302.27 72.7989C301.385 72.7989 300.932 72.1467 300.932 71.4742V70.5978C314.319 69.2731 320.992 63.9742 325.894 53.8247L326.78 54.2731C327.439 54.4973 327.666 55.3736 327.233 56.0258H327.254Z" fill="#FFFDF8"/>
<path d="M469.924 56.0258C468.152 59.5516 466.793 66.8478 466.793 72.1263V75.8763C477.05 62.4253 493.321 53.8247 512.269 53.8247C543.04 53.8247 563.101 72.5747 563.101 101.474V159.721C563.101 168.995 566.232 173.845 572.019 174.273C572.472 174.273 572.905 174.925 572.905 175.598V176.474H539.91V175.598C539.91 174.925 540.363 174.273 540.795 174.273C546.583 173.825 549.713 168.974 549.713 159.721V101.474C549.713 73.0231 535.44 56.0258 510.931 56.0258C492.868 56.0258 476.823 65.0747 466.793 80.0747V159.721C466.793 168.995 469.924 173.845 475.711 174.273C476.164 174.273 476.597 174.925 476.597 175.598V176.474H443.602V175.598C443.602 174.925 444.055 174.273 444.487 174.273C450.275 173.825 453.405 168.974 453.405 159.721V82.9484C453.405 75.6725 450.501 73.2473 444.94 72.7989C444.055 72.7989 443.602 72.1467 443.602 71.4742V70.5978C456.969 69.2731 463.662 63.9742 468.564 53.8247L469.45 54.2731C470.109 54.4973 470.335 55.3736 469.903 56.0258H469.924Z" fill="#FFFDF8"/>
<path d="M639.781 56.0258C612.141 56.0258 596.097 76.3247 596.097 104.776C596.097 105.428 595.417 106.101 594.758 106.101H593.872C593.872 81.3994 590.762 73.2269 583.389 60.2038H584.727C585.613 60.2038 585.84 60.6522 586.519 61.5285C589.197 65.7269 590.968 67.0516 594.552 67.0516C604.129 67.0516 616.178 53.8247 639.802 53.8247C675.701 53.8247 694.196 80.5231 694.196 105.876V159.701C694.196 168.974 697.327 173.825 703.115 174.253C703.568 174.253 704 174.905 704 175.577V176.454H694.196C686.617 176.454 680.809 170.727 680.809 163.003V158.376C670.325 173.152 652.942 180 635.332 180C603.449 180 582.936 163.227 582.936 137.425C582.936 111.624 603.449 95.2785 635.332 95.2785C652.942 95.2785 670.325 102.126 680.809 116.902V105.876C680.809 80.5027 669.44 56.0258 639.781 56.0258ZM637.124 177.799C654.075 177.799 671.005 170.523 680.809 154.198V121.101C671.005 104.776 654.054 97.5 637.124 97.5C612.594 97.5 596.776 113.173 596.776 137.425C596.776 161.678 612.615 177.799 637.124 177.799Z" fill="#FFFDF8"/>
</g>
<defs>
<clipPath id="clip0_793_6192">
<rect width="704" height="180" fill="white"/>
</clipPath>
</defs>
</svg>
