<svg width="18" height="18" viewBox="0 0 18 18" fill="none" xmlns="http://www.w3.org/2000/svg">
<path d="M10.2642 3.97723L15.0975 8.81056C15.1225 8.8355 15.1423 8.86511 15.1558 8.89771C15.1693 8.93031 15.1763 8.96525 15.1763 9.00054C15.1763 9.03582 15.1693 9.07077 15.1558 9.10336C15.1423 9.13596 15.1225 9.16558 15.0975 9.19051L10.2642 14.0238C10.2138 14.0742 10.1455 14.1025 10.0742 14.1025C10.003 14.1025 9.93463 14.0742 9.88424 14.0238C9.83386 13.9735 9.80555 13.9051 9.80555 13.8339C9.80555 13.7626 9.83386 13.6943 9.88424 13.6439L14.2591 9.26906L3.09274 9.26906C3.02152 9.26906 2.95322 9.24077 2.90287 9.19041C2.85251 9.14005 2.82422 9.07175 2.82422 9.00054C2.82422 8.92932 2.85251 8.86102 2.90287 8.81067C2.95322 8.76031 3.02152 8.73202 3.09274 8.73202L14.2591 8.73202L9.88424 4.35718C9.83386 4.3068 9.80555 4.23846 9.80555 4.1672C9.80555 4.09595 9.83386 4.02761 9.88424 3.97723C9.93463 3.92684 10.003 3.89854 10.0742 3.89854C10.1455 3.89854 10.2138 3.92684 10.2642 3.97723Z" fill="#D4C3A5"/>
</svg>
