<svg width="64" height="64" viewBox="0 0 64 64" fill="none" xmlns="http://www.w3.org/2000/svg">
<g clip-path="url(#clip0_793_6201)">
<path d="M64 32.9582H63.9397C63.9497 32.6313 63.9648 32.2994 63.9648 31.9725C63.9648 26.3002 62.467 20.7636 59.6321 15.8959V15.8808L59.1999 15.1717C56.8978 11.4505 53.7916 8.18688 50.1978 5.69266V5.6826L49.7253 5.37083C47.3177 3.75662 44.714 2.49442 41.9797 1.59932V1.58423L41.1956 1.35291C38.2301 0.462835 35.1389 0.0102539 32.0025 0.0102539C31.6155 0.0102539 31.2285 0.0152826 30.8465 0.0303686C28.1524 0.125914 25.4884 0.55838 22.92 1.32274L22.1409 1.55406V1.56914C22.0253 1.60435 21.9097 1.63955 21.7991 1.67475C19.1955 2.54974 16.7125 3.76668 14.4155 5.29037C14.4155 5.29037 14.4054 5.29539 14.4004 5.30042L13.943 5.60214V5.6122C13.6263 5.82843 13.3147 6.0497 13.0081 6.27599C9.7812 8.66461 6.9916 11.6868 4.87552 15.0862C4.87552 15.0862 4.87552 15.0862 4.87552 15.0913L4.43823 15.7902V15.8053C1.55816 20.6882 0.0402105 26.265 0.0402105 31.9725C0.0402105 32.2994 0.0502631 32.6263 0.0603157 32.9531H0L0.170895 34.8741C0.261368 35.8647 0.392052 36.8453 0.572999 37.8058C3.24197 52.2582 15.672 63.271 30.5851 63.9147H30.5951L31.2888 63.9449V63.9901L31.8718 63.97L32.5202 64.0002V63.9499L32.7916 63.9398C32.9324 63.9398 33.0681 63.9298 33.1937 63.9248C34.194 63.8896 35.1842 63.8041 36.1643 63.6784C36.6518 63.613 37.1394 63.5376 37.6219 63.4521C38.1045 63.3666 38.582 63.271 39.0544 63.1604C52.0927 60.2086 62.2006 49.246 63.7437 35.6133C63.7638 35.4423 63.7788 35.2764 63.7939 35.1054C63.804 35.0249 63.809 34.9495 63.8191 34.8691L63.9899 32.9582H64ZM60.567 33.1342C48.0264 34.2354 37.441 42.6484 33.2541 54.144V30.5394C44.0707 30.2427 53.5252 25.9482 57.7875 19.612C59.6271 23.4489 60.5922 27.668 60.5922 31.9776C60.5922 32.3597 60.5821 32.747 60.567 33.1342ZM60.1599 36.9258C60.1297 37.0968 60.0996 37.2677 60.0644 37.4387C60.0141 37.6851 59.9639 37.9366 59.9086 38.183C59.8734 38.3489 59.8382 38.5098 59.798 38.6758C59.7377 38.9272 59.6723 39.1786 59.602 39.4301C59.5618 39.5809 59.5216 39.7368 59.4763 39.8877C59.4009 40.1592 59.3155 40.4207 59.23 40.6872C59.1898 40.818 59.1496 40.9487 59.1094 41.0744C58.9938 41.4164 58.8732 41.7583 58.7425 42.0953C58.7224 42.1405 58.7073 42.1908 58.6922 42.2361C58.5414 42.6233 58.3856 43.0105 58.2197 43.3876C58.1795 43.4731 58.1393 43.5586 58.1041 43.6441C57.9735 43.9307 57.8428 44.2174 57.7071 44.504C57.6467 44.6297 57.5814 44.7504 57.5211 44.8711C57.4005 45.1125 57.2748 45.3589 57.1441 45.5952C57.0737 45.726 56.9983 45.8567 56.923 45.9875C56.7973 46.2138 56.6666 46.44 56.5309 46.6613C56.4505 46.7921 56.3701 46.9228 56.2896 47.0535C56.1539 47.2698 56.0182 47.486 55.8775 47.7022C55.792 47.828 55.7066 47.9537 55.6211 48.0794C55.4754 48.2956 55.3246 48.5068 55.1688 48.718C55.0833 48.8337 54.9979 48.9544 54.9124 49.07C54.7516 49.2863 54.5807 49.5025 54.4148 49.7187C54.3344 49.8243 54.249 49.9249 54.1685 50.0305C53.9826 50.2618 53.7865 50.4881 53.5905 50.7144C53.5201 50.7949 53.4548 50.8753 53.3844 50.9558C53.1432 51.2273 52.8969 51.4939 52.6456 51.7554C52.6154 51.7855 52.5903 51.8157 52.5601 51.8459C51.9771 52.4493 51.3739 53.0226 50.7406 53.5707C50.7305 53.5808 50.7205 53.5908 50.7054 53.6009C50.4089 53.8573 50.1073 54.1088 49.7956 54.3552C49.7404 54.3954 49.6851 54.4407 49.6348 54.4809C49.3684 54.6921 49.097 54.8983 48.8205 55.0994C48.7502 55.1497 48.6798 55.2 48.6044 55.2503C48.343 55.4364 48.0766 55.6224 47.8052 55.8034C47.7248 55.8537 47.6494 55.909 47.569 55.9593C47.2976 56.1353 47.0261 56.3063 46.7547 56.4723C46.6743 56.5225 46.5939 56.5678 46.5135 56.6131C46.232 56.779 45.9455 56.945 45.654 57.1008C45.5836 57.1411 45.5082 57.1813 45.4378 57.2215C45.1312 57.3875 44.8146 57.5434 44.5029 57.6993C44.4477 57.7244 44.3924 57.7546 44.3371 57.7797C43.9802 57.9507 43.6183 58.1166 43.2514 58.2725C43.2363 58.2776 43.2263 58.2826 43.2112 58.2926C42.0401 58.7955 40.8237 59.2179 39.5772 59.5649C39.5621 59.5649 39.547 59.575 39.5319 59.575C39.1499 59.6806 38.7629 59.7761 38.3708 59.8666C38.2904 59.8867 38.21 59.9018 38.1296 59.9169C37.8029 59.9873 37.4762 60.0577 37.1444 60.1181C37.0288 60.1382 36.9132 60.1583 36.7976 60.1784C36.5011 60.2287 36.2045 60.2739 35.9029 60.3142C35.7622 60.3343 35.6265 60.3494 35.4857 60.3695C35.345 60.3846 35.2093 60.3997 35.0686 60.4147C37.1394 47.7827 47.4886 37.9667 60.2152 36.5587C60.1951 36.6844 60.175 36.8101 60.1549 36.9358L60.1599 36.9258ZM28.3836 60.3494C28.2127 60.3293 28.0368 60.3041 27.8659 60.279C27.6196 60.2438 27.3733 60.2035 27.132 60.1633C26.9611 60.1331 26.7953 60.103 26.6244 60.0728C26.3781 60.0275 26.1318 59.9722 25.8855 59.9169C25.7247 59.8817 25.5638 59.8465 25.403 59.8113C25.1416 59.751 24.8853 59.6806 24.6289 59.6152C24.4882 59.575 24.3424 59.5398 24.2017 59.4995C23.8951 59.414 23.5885 59.3185 23.2869 59.2179C23.2014 59.1877 23.111 59.1676 23.0255 59.1375C22.6385 59.0067 22.2515 58.8709 21.8695 58.7251C21.7689 58.6849 21.6734 58.6446 21.5729 58.6044C21.2914 58.4938 21.015 58.3832 20.7386 58.2625C20.5978 58.2021 20.4621 58.1368 20.3214 58.0764C20.0902 57.9708 19.8589 57.8652 19.6277 57.7596C19.4769 57.6892 19.3312 57.6087 19.1804 57.5383C18.9643 57.4327 18.7532 57.3221 18.5421 57.2115C18.3913 57.131 18.2405 57.0455 18.0897 56.9651C17.8836 56.8494 17.6826 56.7337 17.4815 56.6181C17.3307 56.5276 17.185 56.4421 17.0392 56.3516C16.8381 56.2309 16.6421 56.1052 16.4461 55.9744C16.3003 55.8789 16.1596 55.7884 16.0188 55.6928C15.8228 55.5621 15.6268 55.4263 15.4358 55.2855C15.3001 55.1899 15.1644 55.0944 15.0287 54.9938C14.8276 54.848 14.6316 54.6971 14.4406 54.5412C14.32 54.4457 14.1943 54.3502 14.0737 54.2546C13.8575 54.0836 13.6464 53.9026 13.4404 53.7216C13.3449 53.6411 13.2443 53.5607 13.1539 53.4752C12.5457 52.9421 11.9626 52.389 11.4047 51.8056C11.3192 51.7202 11.2439 51.6296 11.1584 51.5442C10.9624 51.338 10.7714 51.1318 10.5854 50.9206C10.4899 50.81 10.3944 50.6993 10.2989 50.5837C10.133 50.3876 9.96717 50.1965 9.80633 49.9953C9.7058 49.8746 9.6103 49.7489 9.5148 49.6232C9.36401 49.4271 9.2082 49.236 9.06244 49.0348C8.96694 48.9041 8.87144 48.7734 8.77594 48.6426C8.6352 48.4415 8.48944 48.2453 8.35373 48.0392C8.26325 47.9084 8.17278 47.7726 8.08231 47.6369C7.9466 47.4307 7.81088 47.2195 7.6802 47.0083C7.59475 46.8725 7.51433 46.7418 7.43391 46.606C7.30323 46.3847 7.17254 46.1635 7.04689 45.9372C6.97652 45.8064 6.90112 45.6807 6.83075 45.55C6.70007 45.3036 6.56939 45.0572 6.44373 44.8057C6.38844 44.6901 6.32812 44.5794 6.26781 44.4638C6.11702 44.157 5.97126 43.8402 5.83555 43.5284C5.81041 43.4731 5.78026 43.4128 5.75512 43.3575C5.58926 42.9753 5.43344 42.5881 5.28265 42.2009C5.26255 42.1556 5.24747 42.1053 5.23239 42.0601C5.10673 41.7231 4.98107 41.3812 4.86547 41.0392C4.82526 40.9186 4.79007 40.7979 4.74986 40.6772C4.66441 40.4056 4.57897 40.1341 4.49855 39.8575C4.45834 39.7117 4.41813 39.5658 4.38294 39.42C4.31257 39.1635 4.24723 38.9071 4.18692 38.6506C4.15173 38.4947 4.11655 38.3338 4.08136 38.1779C4.02607 37.9265 3.97078 37.6751 3.92555 37.4236C3.89539 37.2577 3.86523 37.0917 3.83507 36.9258C3.81497 36.8051 3.79486 36.6844 3.77476 36.5637C16.3958 38.0472 26.6595 47.8481 28.7304 60.3795C28.6098 60.3645 28.4941 60.3544 28.3735 60.3393L28.3836 60.3494ZM8.23812 16.0668C8.48441 15.6997 8.73573 15.3377 8.99709 14.9857C9.00212 14.9756 9.01217 14.9655 9.0172 14.9555C9.28359 14.5985 9.55501 14.2515 9.83649 13.9095C9.86665 13.8743 9.8968 13.8391 9.92194 13.7989C10.1934 13.472 10.4698 13.1502 10.7563 12.8334C10.7965 12.7881 10.8417 12.7378 10.882 12.6926C11.1634 12.3858 11.4499 12.0841 11.7465 11.7874C11.7967 11.7371 11.847 11.6868 11.8922 11.6416C12.1787 11.36 12.4703 11.0834 12.7668 10.8119C12.7367 11.2343 12.7166 11.6567 12.7166 12.0791C12.7166 16.5948 14.4054 20.8692 17.4966 24.2384C13.0935 22.2672 9.72591 19.436 8.18786 16.1322C8.20294 16.1071 8.21802 16.0869 8.23309 16.0668H8.23812ZM16.9588 7.64882C17.0945 7.56333 17.2252 7.48287 17.3609 7.40241C17.5217 7.30687 17.6826 7.21132 17.8434 7.12081C17.9791 7.04538 18.1098 6.96994 18.2455 6.89452C18.4114 6.804 18.5772 6.71348 18.7431 6.628C18.8788 6.55759 19.0095 6.48719 19.1452 6.42182C19.3161 6.33633 19.492 6.25084 19.6629 6.16536C19.7936 6.09998 19.9243 6.03964 20.06 5.9793C20.2409 5.89381 20.4219 5.81838 20.6028 5.73792C20.6581 5.71278 20.7184 5.68763 20.7737 5.66249C20.2912 7.6991 20.0399 9.87149 20.0399 12.0841C20.0399 16.9519 21.2613 21.3922 23.2618 24.696C22.3068 24.0976 21.4071 23.3986 20.5928 22.6041C17.6876 19.7679 16.0892 16.0367 16.0892 12.0841C16.0892 10.6208 16.3104 9.17754 16.7426 7.78962C16.813 7.74436 16.8884 7.6991 16.9588 7.65385V7.64882ZM24.7697 4.29469C24.8953 4.25949 25.026 4.22932 25.1517 4.19914C25.3427 4.15389 25.5337 4.10863 25.7196 4.06337C25.8553 4.0332 25.991 4.00302 26.1268 3.97788C26.3127 3.93765 26.4987 3.90245 26.6797 3.86725C26.8204 3.84211 26.9561 3.81696 27.0968 3.79182C27.2828 3.76165 27.4688 3.73148 27.6548 3.7013C27.7955 3.68119 27.9312 3.66107 28.0719 3.64096C28.2579 3.61582 28.4489 3.59067 28.6399 3.57056C28.7756 3.55547 28.9113 3.54039 29.0521 3.5253C29.2481 3.50519 29.4441 3.4901 29.6452 3.46999C29.7256 3.46496 29.811 3.4549 29.8915 3.44987V26.6924C26.1871 24.9776 23.4075 18.9835 23.4075 12.0841C23.4075 9.33342 23.8398 6.66822 24.6641 4.32486C24.6993 4.3148 24.7345 4.30475 24.7646 4.29469H24.7697ZM33.998 3.43981C34.1286 3.44987 34.2593 3.45993 34.385 3.46999C34.586 3.48507 34.7871 3.50519 34.9881 3.5253C35.1239 3.54039 35.2596 3.55547 35.3953 3.57056C35.5913 3.5957 35.7823 3.61582 35.9783 3.64599C36.114 3.6661 36.2548 3.68622 36.3905 3.70633C36.5815 3.7365 36.7725 3.76668 36.9685 3.80188C37.1042 3.82702 37.2399 3.85216 37.3756 3.87731C37.5666 3.91251 37.7627 3.95274 37.9537 3.99297C38.0843 4.02314 38.2201 4.04828 38.3507 4.07845C38.5518 4.12371 38.7478 4.174 38.9438 4.22429C39.0695 4.25446 39.1901 4.28463 39.3158 4.31983C39.351 4.32989 39.3912 4.33995 39.4264 4.35C40.2457 6.68834 40.6779 9.34348 40.6779 12.0841C40.6779 19.5567 37.3857 25.9683 33.249 27.0344V3.39958C33.249 3.39958 33.2993 3.39958 33.3244 3.39958C33.5456 3.40964 33.7718 3.4197 33.9929 3.43478L33.998 3.43981ZM53.1934 12.7831C53.2336 12.8284 53.2688 12.8686 53.309 12.9138C53.5955 13.2357 53.877 13.5575 54.1484 13.8894C54.1736 13.9196 54.1987 13.9498 54.2188 13.9799C54.5003 14.3319 54.7817 14.6839 55.0481 15.046C55.3196 15.4131 55.5759 15.7852 55.8272 16.1624C55.8423 16.1825 55.8524 16.1976 55.8674 16.2177C54.3042 19.5115 50.9416 22.3175 46.5587 24.2686C49.5544 21.015 51.3789 16.7507 51.3789 12.0841C51.3789 11.6919 51.3639 11.2996 51.3387 10.9074C51.6302 11.1739 51.9168 11.4505 52.1982 11.7271C52.2435 11.7723 52.2937 11.8226 52.339 11.8679C52.6355 12.1646 52.922 12.4713 53.2035 12.7781L53.1934 12.7831ZM43.4977 5.77815C43.6786 5.85861 43.8646 5.93907 44.0455 6.02455C44.1762 6.0849 44.3069 6.15027 44.4376 6.21564C44.6135 6.30113 44.7894 6.38662 44.9654 6.47713C45.096 6.54251 45.2267 6.61291 45.3574 6.68331C45.5283 6.77383 45.6992 6.86434 45.8701 6.95989C46.0008 7.03532 46.1315 7.10572 46.2622 7.18115C46.428 7.27669 46.5939 7.37727 46.7598 7.47281C46.8904 7.55327 47.0211 7.63373 47.1468 7.71419C47.2222 7.75945 47.2976 7.80973 47.373 7.86002C47.7952 9.22782 48.0063 10.6459 48.0063 12.0841C48.0063 17.3039 45.1966 21.9152 40.9292 24.6307C42.8744 21.357 44.0506 16.972 44.0506 12.0841C44.0506 9.88658 43.8043 7.7343 43.3268 5.70272C43.3871 5.72786 43.4424 5.753 43.5027 5.77815H43.4977ZM6.25273 19.5266C10.3693 25.7018 19.4418 29.9812 29.8915 30.4991V52.4292C28.2026 48.5018 25.7347 44.9164 22.5882 41.9092C17.3558 36.9006 10.6005 33.8231 3.43297 33.1492C3.41789 32.757 3.40784 32.3648 3.40784 31.9776C3.40784 27.6428 4.38294 23.3936 6.25273 19.5316V19.5266Z" fill="#FDF7EC"/>
</g>
<defs>
<clipPath id="clip0_793_6201">
<rect width="64" height="64" fill="white"/>
</clipPath>
</defs>
</svg>
