<svg width="204" height="55" viewBox="0 0 204 55" fill="none" xmlns="http://www.w3.org/2000/svg">
<g clip-path="url(#clip0_805_6680)">
<path d="M54.7121 28.3209H54.6559C54.6639 28.0379 54.6719 27.7549 54.6719 27.472C54.6719 22.5969 53.3938 17.8351 50.9661 13.6553V13.6391L50.5963 13.0328C48.6268 9.83931 45.974 7.02585 42.9032 4.88341L42.5012 4.60853C40.4433 3.22605 38.2166 2.13462 35.8773 1.36658V1.35041L35.2101 1.1483C32.6778 0.380252 30.0331 -0.0078125 27.3562 -0.0078125C27.0266 -0.0078125 26.697 -0.0078125 26.3674 0.00835684C24.0603 0.0892035 21.7853 0.461098 19.5907 1.11596L18.9235 1.31807V1.33424C18.819 1.36658 18.7225 1.39084 18.6341 1.42317C16.4074 2.17505 14.2851 3.21797 12.3237 4.52769C12.3237 4.52769 12.3237 4.52769 12.3156 4.52769L11.9217 4.7864C11.6564 4.98043 11.3831 5.16638 11.1259 5.36041C8.36859 7.41391 5.98107 10.0091 4.17235 12.9277L3.80257 13.5259V13.5421C1.33466 17.7785 0.0323814 22.5646 0.0323814 27.472C0.0323814 27.7549 0.0404201 28.0298 0.0484589 28.3128H-0.0078125L0.136885 29.9621C0.209234 30.8109 0.329816 31.6517 0.482553 32.4845C2.76556 44.9025 13.3928 54.3697 26.1423 54.9194C26.1423 54.9194 26.1423 54.9194 26.1504 54.9194L26.7452 54.9437V54.9841L27.2436 54.9679L27.7983 54.9922V54.9518L28.0314 54.9437C28.152 54.9437 28.2646 54.9437 28.3771 54.9275C29.2372 54.8952 30.0813 54.8224 30.9174 54.7173C31.3354 54.6607 31.7534 54.596 32.1634 54.5233C32.5733 54.4505 32.9833 54.3697 33.3853 54.2727C44.535 51.7341 53.1687 42.3154 54.487 30.6007C54.5031 30.4552 54.5192 30.3097 54.5272 30.1642C54.5272 30.0995 54.5433 30.0267 54.5514 29.9621L54.6961 28.3209H54.7121ZM51.778 28.4745C41.0543 29.4204 32.0106 36.6481 28.4334 46.5275V26.2431C37.678 25.9844 45.7569 22.2978 49.4065 16.8487C50.9821 20.1473 51.8021 23.7692 51.8021 27.472C51.8021 27.8034 51.7941 28.1349 51.778 28.4664V28.4745ZM51.4243 31.7326C51.4002 31.8781 51.376 32.0236 51.3439 32.1692C51.3037 32.3794 51.2555 32.5977 51.2153 32.8079C51.1831 32.9453 51.1509 33.0908 51.1188 33.2283C51.0706 33.4465 51.0143 33.6648 50.95 33.875C50.9178 34.0044 50.8776 34.1418 50.8455 34.2712C50.7812 34.5056 50.7088 34.732 50.6365 34.9584C50.6043 35.0716 50.5722 35.1847 50.532 35.2898C50.4355 35.589 50.331 35.88 50.2185 36.1711C50.2024 36.2115 50.1863 36.2519 50.1783 36.2923C50.0496 36.6238 49.913 36.9553 49.7763 37.2787C49.7442 37.3514 49.712 37.4242 49.6718 37.497C49.5593 37.7476 49.4467 37.9901 49.3342 38.2327C49.286 38.3378 49.2297 38.4429 49.1734 38.548C49.0689 38.7582 48.9644 38.9684 48.8519 39.1705C48.7875 39.2837 48.7232 39.3969 48.667 39.51C48.5544 39.7041 48.4499 39.8981 48.3374 40.0921C48.2731 40.2053 48.2007 40.3185 48.1284 40.4317C48.0158 40.6176 47.8952 40.8036 47.7747 40.9895C47.7023 41.1027 47.63 41.2078 47.5576 41.3129C47.429 41.4989 47.3004 41.6767 47.1718 41.8627C47.0994 41.9678 47.0271 42.0648 46.9547 42.1618C46.8181 42.3478 46.6734 42.5337 46.5287 42.7197C46.4563 42.8086 46.392 42.8975 46.3196 42.9865C46.1589 43.1886 45.9901 43.3826 45.8293 43.5686C45.773 43.6413 45.7087 43.706 45.6524 43.7788C45.4434 44.0132 45.2344 44.2396 45.0174 44.4659C44.9932 44.4902 44.9691 44.5145 44.945 44.5387C44.4466 45.0561 43.9321 45.5493 43.3855 46.0182C43.3775 46.0263 43.3694 46.0344 43.3533 46.0425C43.0961 46.2607 42.8389 46.479 42.5736 46.6892C42.5253 46.7297 42.4851 46.762 42.4369 46.7943C42.2038 46.9722 41.9787 47.1501 41.7375 47.3279C41.6732 47.3764 41.617 47.4169 41.5527 47.4573C41.3276 47.619 41.1025 47.7807 40.8694 47.9343C40.805 47.9828 40.7327 48.0232 40.6684 48.0636C40.4353 48.2172 40.2021 48.3628 39.969 48.5002C39.9047 48.5406 39.8324 48.581 39.768 48.6215C39.5269 48.767 39.2777 48.9044 39.0365 49.0419C38.9722 49.0742 38.9159 49.1065 38.8516 49.147C38.5863 49.2925 38.3211 49.4218 38.0477 49.5593C37.9995 49.5835 37.9513 49.6078 37.903 49.632C37.5976 49.7776 37.2921 49.9231 36.9786 50.0525C36.9706 50.0525 36.9545 50.0605 36.9464 50.0686C35.9416 50.4971 34.9046 50.869 33.8435 51.1601C33.8274 51.1601 33.8194 51.1601 33.8033 51.1681C33.4737 51.2571 33.1441 51.3379 32.8145 51.4188C32.7502 51.4349 32.6778 51.4511 32.6055 51.4592C32.3241 51.5239 32.0428 51.5805 31.7614 51.629C31.665 51.6451 31.5685 51.6613 31.464 51.6775C31.2067 51.7179 30.9575 51.7583 30.7003 51.7987C30.5797 51.8149 30.4591 51.8311 30.3466 51.8473C30.226 51.8634 30.1054 51.8715 29.9929 51.8877C31.7614 41.0381 40.6121 32.5977 51.4886 31.385C51.4725 31.4901 51.4564 31.6032 51.4403 31.7083L51.4243 31.7326ZM24.2612 51.8553C24.1166 51.8392 23.9638 51.8149 23.8191 51.7987C23.6101 51.7664 23.4011 51.7341 23.1921 51.6936C23.0474 51.6694 22.9027 51.6451 22.758 51.6128C22.549 51.5724 22.34 51.5239 22.1229 51.4834C21.9863 51.4511 21.8496 51.4268 21.713 51.3945C21.4879 51.3379 21.2708 51.2813 21.0538 51.2247C20.9332 51.1924 20.8126 51.1601 20.692 51.1277C20.4268 51.055 20.1695 50.9741 19.9123 50.8852C19.8399 50.8609 19.7595 50.8367 19.6872 50.8124C19.3576 50.6992 19.028 50.586 18.6984 50.4567C18.61 50.4243 18.5296 50.3839 18.4412 50.3516C18.2 50.2546 17.9669 50.1576 17.7257 50.0605C17.6051 50.012 17.4926 49.9554 17.372 49.8988C17.171 49.8099 16.9781 49.721 16.7771 49.624C16.6485 49.5593 16.5199 49.4946 16.3993 49.4299C16.2144 49.341 16.0376 49.244 15.8527 49.147C15.7241 49.0742 15.5954 49.0014 15.4668 48.9368C15.29 48.8398 15.1212 48.7427 14.9443 48.6376C14.8157 48.5649 14.6871 48.484 14.5665 48.4032C14.3977 48.2981 14.2289 48.193 14.06 48.0798C13.9395 47.9989 13.8108 47.9181 13.6903 47.8373C13.5214 47.7241 13.3607 47.6028 13.1919 47.4896C13.0793 47.4088 12.9587 47.3279 12.8462 47.239C12.6774 47.1096 12.5086 46.9803 12.3397 46.8509C12.2352 46.7701 12.1307 46.6892 12.0262 46.6084C11.8413 46.4629 11.6645 46.3093 11.4876 46.1556C11.4072 46.0829 11.3188 46.0182 11.2384 45.9454C10.724 45.4846 10.2255 45.0076 9.74322 44.5145C9.67087 44.4417 9.60656 44.3608 9.53421 44.2881C9.3654 44.1102 9.20462 43.9324 9.04385 43.7545C8.96346 43.6575 8.88307 43.5605 8.79465 43.4634C8.64995 43.2937 8.51329 43.132 8.36859 42.9541C8.28016 42.849 8.19978 42.7439 8.11939 42.6388C7.99077 42.469 7.86215 42.3073 7.73353 42.1376C7.65314 42.0244 7.57275 41.9112 7.49236 41.798C7.37178 41.6282 7.2512 41.4585 7.13062 41.2806C7.05023 41.1674 6.97788 41.0542 6.8975 40.9329C6.78495 40.7551 6.66437 40.5772 6.55183 40.3913C6.47948 40.2781 6.40713 40.1649 6.34282 40.0436C6.23028 39.8577 6.11773 39.6637 6.01323 39.4696C5.94892 39.3564 5.88461 39.2513 5.82834 39.1381C5.7158 38.9279 5.60325 38.7177 5.49875 38.4995C5.45052 38.4024 5.39424 38.3054 5.35405 38.2084C5.22543 37.9416 5.10485 37.6748 4.98427 37.3999C4.96015 37.3514 4.93603 37.3029 4.91996 37.2544C4.77526 36.923 4.64664 36.5915 4.51802 36.26C4.50194 36.2196 4.48586 36.1792 4.47782 36.1387C4.36528 35.8477 4.26078 35.5566 4.16431 35.2656C4.13216 35.1605 4.1 35.0554 4.06785 34.9584C3.9955 34.7239 3.92315 34.4895 3.8508 34.255C3.81864 34.1337 3.78649 34.0044 3.7463 33.8831C3.69002 33.6648 3.63375 33.4465 3.57748 33.2202C3.54533 33.0827 3.51317 32.9534 3.48905 32.8159C3.44082 32.5977 3.39259 32.3875 3.3524 32.1692C3.32828 32.0317 3.29612 31.8862 3.27201 31.7407C3.25593 31.6356 3.23985 31.5305 3.22378 31.4335C14.0118 32.7108 22.7902 41.127 24.5587 51.9038C24.4542 51.8958 24.3577 51.8796 24.2532 51.8715L24.2612 51.8553ZM7.04219 13.8089C7.2512 13.4936 7.46825 13.1864 7.69333 12.8791C7.69333 12.8711 7.70137 12.863 7.70941 12.8549C7.9345 12.5477 8.16762 12.2485 8.40878 11.9575C8.4329 11.9252 8.45702 11.8928 8.48113 11.8605C8.71426 11.5775 8.94738 11.3026 9.19658 11.0278C9.23678 10.9873 9.26893 10.9469 9.30913 10.9065C9.55029 10.6397 9.79949 10.381 10.0487 10.1304C10.0889 10.0899 10.1291 10.0495 10.1773 10.001C10.4185 9.75847 10.6677 9.52401 10.9249 9.28956C10.9008 9.65337 10.8847 10.0172 10.8847 10.381C10.8847 14.2616 12.3317 17.9321 14.9684 20.8264C11.2063 19.1367 8.3284 16.7032 7.01004 13.8655C7.02612 13.8493 7.03415 13.8251 7.05023 13.8089H7.04219ZM14.4941 6.57311C14.6067 6.50035 14.7192 6.42758 14.8398 6.36291C14.9765 6.28206 15.1131 6.20121 15.2498 6.12037C15.3623 6.05569 15.4749 5.99101 15.5954 5.92633C15.7401 5.84549 15.8768 5.77273 16.0215 5.69996C16.134 5.64337 16.2466 5.57869 16.3672 5.5221C16.5119 5.44934 16.6646 5.37658 16.8093 5.30381C16.9218 5.24722 17.0344 5.19063 17.1469 5.14212C17.2997 5.06936 17.4604 5.00468 17.6132 4.93192C17.6614 4.90767 17.7096 4.8915 17.7579 4.86724C17.3479 6.62162 17.1309 8.48109 17.1309 10.3891C17.1309 14.5769 18.1759 18.3848 19.8801 21.2225C19.0602 20.7051 18.2965 20.1068 17.5971 19.4277C15.1131 16.9942 13.7465 13.7846 13.7465 10.3891C13.7465 9.12786 13.9314 7.89091 14.3092 6.69438C14.3736 6.65395 14.4298 6.61353 14.4941 6.57311ZM21.1744 3.68688C21.2789 3.65454 21.3914 3.63029 21.5039 3.60603C21.6647 3.56561 21.8255 3.52519 21.9943 3.49285C22.1069 3.4686 22.2274 3.44434 22.34 3.42009C22.5008 3.38775 22.6535 3.35541 22.8143 3.32307C22.9349 3.29882 23.0554 3.28265 23.168 3.25839C23.3288 3.23414 23.4815 3.2018 23.6423 3.17755C23.7628 3.16138 23.8834 3.14521 23.996 3.12904C24.1567 3.10478 24.3175 3.08862 24.4783 3.06436C24.5989 3.04819 24.7114 3.04011 24.832 3.02394C25.0008 3.00777 25.1696 2.9916 25.3384 2.97543C25.4108 2.97543 25.4831 2.96735 25.5475 2.95926V22.9365C22.3802 21.4651 20.0087 16.3151 20.0087 10.381C20.0087 8.02026 20.3785 5.7323 21.0859 3.71114C21.1181 3.71114 21.1422 3.69497 21.1744 3.68688ZM29.0604 2.95118C29.1729 2.95118 29.2855 2.96735 29.39 2.97543C29.5588 2.9916 29.7357 3.00777 29.9045 3.02394C30.017 3.04011 30.1376 3.04819 30.2501 3.06436C30.4189 3.08053 30.5797 3.10478 30.7485 3.12904C30.8691 3.14521 30.9817 3.16138 31.1022 3.17755C31.263 3.2018 31.4318 3.23414 31.5926 3.25839C31.7052 3.28265 31.8257 3.29882 31.9383 3.32307C32.1071 3.35541 32.2679 3.38775 32.4286 3.42009C32.5412 3.44434 32.6537 3.4686 32.7663 3.49285C32.9351 3.53327 33.1039 3.5737 33.2727 3.61412C33.3772 3.63837 33.4817 3.66263 33.5862 3.69497C33.6184 3.70305 33.6505 3.71114 33.6827 3.71922C34.3821 5.7323 34.7518 8.01218 34.7518 10.3648C34.7518 16.784 31.9383 22.2978 28.4012 23.2114V2.91884C28.4012 2.91884 28.4414 2.91884 28.4655 2.91884C28.6585 2.92692 28.8433 2.93501 29.0363 2.95118H29.0604ZM45.4756 10.9793C45.4756 10.9793 45.5399 11.052 45.572 11.0924C45.8132 11.3673 46.0544 11.6503 46.2875 11.9332C46.3116 11.9575 46.3277 11.9818 46.3518 12.0141C46.593 12.3132 46.8341 12.6204 47.0592 12.9277C47.2923 13.243 47.5094 13.5583 47.7264 13.8816C47.7345 13.8978 47.7505 13.914 47.7586 13.9302C46.4241 16.7598 43.5463 19.1771 39.8002 20.8506C42.3646 18.0533 43.9161 14.391 43.9161 10.381C43.9161 10.0414 43.9 9.70996 43.8759 9.3704C44.1251 9.59677 44.3662 9.83123 44.6074 10.0738C44.6476 10.1142 44.6878 10.1546 44.728 10.195C44.9772 10.4537 45.2264 10.7125 45.4675 10.9793H45.4756ZM37.1876 4.96426C37.3403 5.03702 37.5011 5.1017 37.6538 5.17446C37.7664 5.23105 37.8789 5.27956 37.9915 5.33615C38.1442 5.40892 38.2889 5.48168 38.4416 5.56252C38.5542 5.61912 38.6667 5.68379 38.7793 5.74039C38.924 5.82123 39.0687 5.894 39.2214 5.98293C39.334 6.0476 39.4465 6.11228 39.559 6.17696C39.7037 6.25781 39.8404 6.34674 39.9851 6.42758C40.0976 6.49226 40.2102 6.56502 40.3147 6.63779C40.379 6.67821 40.4433 6.71863 40.5076 6.75906C40.8694 7.93942 41.0462 9.15212 41.0462 10.3891C41.0462 14.8761 38.6426 18.8375 34.993 21.1659C36.657 18.3525 37.6619 14.585 37.6619 10.3891C37.6619 8.50534 37.4529 6.64587 37.0429 4.90767C37.0911 4.93192 37.1394 4.94809 37.1956 4.97234L37.1876 4.96426ZM5.34601 16.784C8.86699 22.0957 16.6244 25.7661 25.5555 26.2108V45.0561C24.1166 41.6848 22.0024 38.5965 19.3174 36.0175C14.8478 31.7164 9.06796 29.0727 2.94242 28.4906C2.92634 28.1511 2.9183 27.8196 2.9183 27.4801C2.9183 23.753 3.75433 20.1068 5.35405 16.784H5.34601Z" fill="#FFFDF8"/>
<path d="M81.4978 11.205C80.4367 11.2859 79.874 12.1913 79.874 13.9053V24.6256C81.4174 23.7686 82.8483 23.4371 84.231 23.4371C87.9369 23.4371 91.1926 25.814 94.8904 25.814C96.2731 25.814 97.696 25.4825 99.2474 24.6256V13.9053C99.2474 12.1833 98.6767 11.2859 97.6156 11.205C97.5352 11.205 97.4548 11.0837 97.4548 10.9625V10.8008H103.645V10.9625C103.645 11.0837 103.564 11.205 103.484 11.205C102.423 11.2859 101.852 12.1913 101.852 13.9053V40.4311C101.852 42.1531 102.423 43.0505 103.484 43.1314C103.564 43.1314 103.645 43.2526 103.645 43.3739V43.5356H97.4548V43.3739C97.4548 43.2526 97.5352 43.1314 97.6156 43.1314C98.6767 43.0505 99.2474 42.145 99.2474 40.4311V25.1187C97.704 25.9757 96.2731 26.3072 94.8904 26.3072C91.1846 26.3072 87.9289 23.9303 84.231 23.9303C82.8483 23.9303 81.4255 24.2618 79.874 25.1187V40.4311C79.874 42.1531 80.4448 43.0505 81.4978 43.1314C81.5782 43.1314 81.6586 43.2526 81.6586 43.3739V43.5356H75.4688V43.3739C75.4688 43.2526 75.5491 43.1314 75.6295 43.1314C76.6906 43.0505 77.2614 42.145 77.2614 40.4311V13.9053C77.2614 12.1833 76.6906 11.2859 75.6295 11.205C75.5491 11.205 75.4688 11.0837 75.4688 10.9625V10.8008H81.6586V10.9625C81.6586 11.0837 81.5782 11.205 81.4978 11.205Z" fill="#FFFDF8"/>
<path d="M116.257 21.1975C111.209 21.1975 108.283 24.9649 108.283 30.2442C108.283 30.3655 108.162 30.4868 108.042 30.4868H107.881C107.881 25.9028 107.31 24.3909 105.968 21.9736H106.209C106.369 21.9736 106.41 22.0544 106.53 22.2161C107.021 22.9923 107.342 23.2429 107.993 23.2429C109.746 23.2429 111.94 20.7852 116.257 20.7852C122.809 20.7852 126.185 25.7411 126.185 30.4463V40.4309C126.185 42.1529 126.756 43.0503 127.817 43.1312C127.897 43.1312 127.978 43.2525 127.978 43.3737V43.5354H126.185C124.802 43.5354 123.741 42.4682 123.741 41.0373V40.1803C121.828 42.921 118.653 44.1903 115.437 44.1903C109.617 44.1903 105.871 41.0777 105.871 36.2916C105.871 31.5054 109.617 28.4737 115.437 28.4737C118.653 28.4737 121.828 29.743 123.741 32.4837V30.4383C123.741 25.733 121.667 21.1894 116.249 21.1894L116.257 21.1975ZM115.767 43.786C118.862 43.786 121.957 42.4359 123.741 39.4042V33.2679C121.949 30.2361 118.854 28.886 115.767 28.886C111.289 28.886 108.403 31.7884 108.403 36.2916C108.403 40.7947 111.289 43.778 115.767 43.778V43.786Z" fill="#FFFDF8"/>
<path d="M135.221 21.1972C134.892 21.8521 134.651 23.2022 134.651 24.1885V24.8838C136.524 22.3856 139.49 20.793 142.955 20.793C148.574 20.793 152.231 24.2694 152.231 29.6376V40.4468C152.231 42.1688 152.802 43.0662 153.863 43.1471C153.944 43.1471 154.024 43.2683 154.024 43.3896V43.5513H148.003V43.3896C148.003 43.2683 148.083 43.1471 148.164 43.1471C149.225 43.0662 149.788 42.1607 149.788 40.4468V29.6376C149.788 24.3583 147.183 21.2053 142.705 21.2053C139.409 21.2053 136.475 22.8869 134.651 25.668V40.4468C134.651 42.1688 135.221 43.0662 136.274 43.1471C136.355 43.1471 136.435 43.2683 136.435 43.3896V43.5513H130.414V43.3896C130.414 43.2683 130.494 43.1471 130.575 43.1471C131.636 43.0662 132.207 42.1607 132.207 40.4468V26.2016C132.207 24.8515 131.676 24.3987 130.663 24.3179C130.502 24.3179 130.422 24.1966 130.422 24.0753V23.9137C132.866 23.6711 134.088 22.6848 134.98 20.8011L135.141 20.8819C135.261 20.9223 135.302 21.084 135.221 21.2053V21.1972Z" fill="#FFFDF8"/>
<path d="M161.266 21.1972C160.945 21.8521 160.695 23.2022 160.695 24.1885V24.8838C162.568 22.3856 165.543 20.793 168.999 20.793C174.619 20.793 178.276 24.2694 178.276 29.6376V40.4468C178.276 42.1688 178.847 43.0662 179.908 43.1471C179.988 43.1471 180.069 43.2683 180.069 43.3896V43.5513H174.048V43.3896C174.048 43.2683 174.128 43.1471 174.209 43.1471C175.27 43.0662 175.832 42.1607 175.832 40.4468V29.6376C175.832 24.3583 173.228 21.2053 168.75 21.2053C165.454 21.2053 162.52 22.8869 160.687 25.668V40.4468C160.687 42.1688 161.258 43.0662 162.319 43.1471C162.4 43.1471 162.48 43.2683 162.48 43.3896V43.5513H156.459V43.3896C156.459 43.2683 156.539 43.1471 156.62 43.1471C157.681 43.0662 158.252 42.1607 158.252 40.4468V26.2016C158.252 24.8515 157.721 24.3987 156.708 24.3179C156.547 24.3179 156.467 24.1966 156.467 24.0753V23.9137C158.911 23.6711 160.133 22.6848 161.025 20.8011L161.186 20.8819C161.306 20.9223 161.347 21.084 161.266 21.2053V21.1972Z" fill="#FFFDF8"/>
<path d="M192.28 21.1975C187.232 21.1975 184.306 24.9649 184.306 30.2442C184.306 30.3655 184.185 30.4868 184.065 30.4868H183.904C183.904 25.9028 183.333 24.3909 181.991 21.9736H182.232C182.393 21.9736 182.433 22.0544 182.562 22.2161C183.052 22.9923 183.373 23.2429 184.025 23.2429C185.777 23.2429 187.972 20.7852 192.288 20.7852C198.84 20.7852 202.216 25.7411 202.216 30.4463V40.4309C202.216 42.1529 202.787 43.0503 203.848 43.1312C203.929 43.1312 204.009 43.2525 204.009 43.3737V43.5354H202.216C200.834 43.5354 199.773 42.4682 199.773 41.0373V40.1803C197.859 42.921 194.684 44.1903 191.468 44.1903C185.648 44.1903 181.902 41.0777 181.902 36.2916C181.902 31.5054 185.648 28.4737 191.468 28.4737C194.684 28.4737 197.859 29.743 199.773 32.4837V30.4383C199.773 25.733 197.699 21.1894 192.28 21.1894V21.1975ZM191.79 43.786C194.885 43.786 197.98 42.4359 199.765 39.4042V33.2679C197.972 30.2361 194.877 28.886 191.79 28.886C187.312 28.886 184.427 31.7884 184.427 36.2916C184.427 40.7947 187.312 43.778 191.79 43.778V43.786Z" fill="#FFFDF8"/>
</g>
<defs>
<clipPath id="clip0_805_6680">
<rect width="204" height="55" fill="white"/>
</clipPath>
</defs>
</svg>
